<svg fill="var(--text-color, gray)" width="32" height="32" viewBox="0 0 24 24" xmlns="http://www.w3.org/2000/svg">
    <path d="M23 22a1 1 0 0 1-2 0 8.964 8.964 0 0 0-6.3-8.588 1 1 0 1 1 .6-1.908A10.956 10.956 0 0 1 23 22zM23 4v6a1 1 0 0 1-1 1h-4a1 1 0 0 1-1-1V9h-4v7a1 1 0 0 1-2 0V13.059A9.01 9.01 0 0 0 3 22a1 1 0 0 1-2 0A11.01 11.01 0 0 1 11 11.051V2a1 1 0 0 1 1-1h6a1 1 0 0 1 1 1v1h3a1 1 0 0 1 1 1zM17 3h-4V7h4zM21 5h-2V9h2zM10 19a2 2 0 1 0-2 2 2 2 0 0 0 2-2zM18 17a1 1 0 1 0-1 1 1 1 0 0 0 1-1z"/>
</svg>